#!OML:ASF H:\Dans Jumps\Project 1\Capture day 1\Session 1\subject.ASF
:FULLY-SPECIFIED
:DEGREES
570
root 0.674184 17.6825 11.7731 7.95124 -1.994 -1.43548
lowerback -4.36574 -0.0648445 -0.293448
upperback 1.03929 -0.123762 1.57138
thorax 3.52365 -0.0849812 1.77529
lowerneck -13.7083 -0.458956 -2.1747
upperneck 16.4918 -0.536277 2.00053
head 7.33311 -0.207895 0.956504
rclavicle -4.96962e-015 -2.18663e-015
rhumerus -27.1662 -15.9773 -79.647
rradius 23.5935
rwrist 38.4065
rhand -15.9058 -26.4997
rfingers 7.12502
rthumb 10.2911 -56.2279
lclavicle -4.96962e-015 -2.18663e-015
lhumerus -24.0927 5.25623 85.9019
lradius 17.5822
lwrist 0.393929
lhand -24.5438 -5.58159
lfingers 7.12502
lthumb 1.95214 24.3892
rfemur -13.2453 -3.90086 21.19
rtibia 21.2313
rfoot -14.936 -1.83312
rtoes 12.0291
lfemur -12.6299 8.9837 -19.2981
ltibia 17.9352
lfoot -10.6585 6.50138
ltoes -4.07762
571
root 0.674133 17.6824 11.7724 7.93952 -1.99752 -1.43745
lowerback -4.36241 -0.0684965 -0.287996
upperback 1.0402 -0.1292 1.57895
thorax 3.52291 -0.0876574 1.77964
lowerneck -13.7097 -0.483451 -2.18371
upperneck 16.4862 -0.571495 2.0202
head 7.3324 -0.22347 0.960782
rclavicle 3.08116e-015 -4.37326e-015
rhumerus -27.1359 -15.9432 -79.642
rradius 23.6092
rwrist 38.366
rhand -15.8961 -26.517
rfingers 7.12502
rthumb 10.3003 -56.2447
lclavicle 3.08116e-015 -4.37326e-015
lhumerus -24.0526 5.24983 85.9428
lradius 17.616
lwrist 0.420623
lhand -24.5701 -5.67437
lfingers 7.12502
lthumb 1.92676 24.2967
rfemur -13.2348 -3.90441 21.1924
rtibia 21.2333
rfoot -14.9378 -1.83571
rtoes 12.005
lfemur -12.6182 8.98371 -19.2943
ltibia 17.9336
lfoot -10.6547 6.50585
ltoes -4.07517
572
root 0.674063 17.6822 11.7716 7.92804 -2.00292 -1.44145
lowerback -4.3603 -0.0718358 -0.280874
upperback 1.04138 -0.134342 1.58699
thorax 3.52312 -0.0901626 1.78357
lowerneck -13.7046 -0.511042 -2.19749
upperneck 16.4782 -0.610929 2.0447
head 7.3299 -0.240945 0.966976
rclavicle 6.4605e-016 8.54774e-015
rhumerus -27.0998 -15.9173 -79.6363
rradius 23.6174
rwrist 38.3307
rhand -15.8874 -26.5381
rfingers 7.12502
rthumb 10.3088 -56.2654
lclavicle 6.4605e-016 8.54774e-015
lhumerus -24.0158 5.2444 85.9879
lradius 17.646
lwrist 0.438336
lhand -24.6009 -5.78405
lfingers 7.12502
lthumb 1.89705 24.1873
rfemur -13.2244 -3.90549 21.1971
rtibia 21.2343
rfoot -14.9385 -1.83831
rtoes 11.9828
lfemur -12.6075 8.98351 -19.2879
ltibia 17.9345
lfoot -10.6512 6.51147
ltoes -4.07998
573
root 0.673902 17.6821 11.771 7.91768 -2.01136 -1.44351
lowerback -4.36103 -0.0749943 -0.27704
upperback 1.0419 -0.139031 1.59407
thorax 3.52425 -0.092503 1.78838
lowerneck -13.6866 -0.542098 -2.21834
upperneck 16.4643 -0.655192 2.07678
head 7.32337 -0.260537 0.976294
rclavicle -1.73937e-015 1.72943e-014
rhumerus -27.0586 -15.9037 -79.6307
rradius 23.6173
rwrist 38.3054
rhand -15.8902 -26.5569
rfingers 7.12502
rthumb 10.3061 -56.2844
lclavicle -1.73937e-015 1.72943e-014
lhumerus -23.9814 5.21626 86.0424
lradius 17.6702
lwrist 0.471942
lhand -24.6342 -5.89843
lfingers 7.12502
lthumb 1.86488 24.0732
rfemur -13.2144 -3.90707 21.2006
rtibia 21.2359
rfoot -14.9387 -1.84142
rtoes 11.9367
lfemur -12.5977 8.984 -19.2837
ltibia 17.9363
lfoot -10.6473 6.52001
ltoes -4.09256
574
root 0.67368 17.6821 11.7704 7.90904 -2.02207 -1.44514
lowerback -4.36463 -0.0775047 -0.274646
upperback 1.04139 -0.142762 1.60067
thorax 3.52589 -0.094389 1.79359
lowerneck -13.656 -0.57623 -2.24402
upperneck 16.4438 -0.703786 2.11414
head 7.31265 -0.282085 0.987664
rclavicle -5.66536e-015 1.0138e-014
rhumerus -27.0161 -15.899 -79.6245
rradius 23.6137
rwrist 38.2905
rhand -15.9093 -26.5686
rfingers 7.12502
rthumb 10.2877 -56.297
lclavicle -5.66536e-015 1.0138e-014
lhumerus -23.953 5.17166 86.1063
lradius 17.7034
lwrist 0.525894
lhand -24.6484 -5.93761
lfingers 7.12502
lthumb 1.85113 24.0341
rfemur -13.2086 -3.90619 21.2035
rtibia 21.2397
rfoot -14.9389 -1.84297
rtoes 11.9062
lfemur -12.5881 8.98415 -19.2797
ltibia 17.936
lfoot -10.6422 6.52999
ltoes -4.10391
575
root 0.673495 17.6821 11.7699 7.90336 -2.03343 -1.44228
lowerback -4.37098 -0.0805285 -0.276433
upperback 1.03925 -0.146875 1.6055
thorax 3.52743 -0.0965258 1.79928
lowerneck -13.6344 -0.608223 -2.26364
upperneck 16.4294 -0.750477 2.15057
head 7.30544 -0.302396 0.997961
rclavicle 2.18663e-015 1.07344e-014
rhumerus -26.9734 -15.9001 -79.6185
rradius 23.6088
rwrist 38.2818
rhand -15.9453 -26.5705
rfingers 7.12502
rthumb 10.2529 -56.3006
lclavicle 2.18663e-015 1.07344e-014
lhumerus -23.9268 5.09527 86.1829
lradius 17.7412
lwrist 0.614998
lhand -24.6454 -5.91516
lfingers 7.12502
lthumb 1.85404 24.0565
rfemur -13.2071 -3.91121 21.2018
rtibia 21.2465
rfoot -14.9405 -1.83942
rtoes 11.8662
lfemur -12.5799 8.98414 -19.2817
ltibia 17.9329
lfoot -10.6372 6.54001
ltoes -4.10713
576
root 0.673341 17.6822 11.7693 7.90013 -2.04607 -1.43678
lowerback -4.37707 -0.0832751 -0.28087
upperback 1.0356 -0.150398 1.60893
thorax 3.52723 -0.0983929 1.80505
lowerneck -13.6299 -0.63714 -2.27861
upperneck 16.427 -0.794188 2.18921
head 7.30513 -0.320702 1.00857
rclavicle 8.94531e-016 -1.27222e-014
rhumerus -26.9309 -15.9069 -79.6126
rradius 23.6037
rwrist 38.2796
rhand -15.9837 -26.5684
rfingers 7.12502
rthumb 10.2159 -56.3004
lclavicle 8.94531e-016 -1.27222e-014
lhumerus -23.9024 4.98736 86.2714
lradius 17.7789
lwrist 0.7286
lhand -24.639 -5.8944
lfingers 7.12502
lthumb 1.86021 24.0772
rfemur -13.2097 -3.91935 21.1971
rtibia 21.2545
rfoot -14.9424 -1.83097
rtoes 11.8334
lfemur -12.5738 8.98291 -19.2872
ltibia 17.9283
lfoot -10.6317 6.55177
ltoes -4.09947
